HIERARCHY
ROOT Hips
{
	OFFSET 0.00000 0.00000 0.00000
	CHANNELS 6 Xposition Yposition Zposition Zrotation Yrotation Xrotation 
	JOINT LHipJoint
	{
		OFFSET 0 0 0
		CHANNELS 3 Zrotation Yrotation Xrotation
		JOINT LeftHip
		{
			OFFSET 1.60223 -1.58443 0.78595
			CHANNELS 3 Zrotation Yrotation Xrotation
			JOINT LeftKnee
			{
				OFFSET 2.21690 -6.09089 0.00000
				CHANNELS 3 Zrotation Yrotation Xrotation
				JOINT LeftAnkle
				{
					OFFSET 2.34805 -6.45122 0.00000
					CHANNELS 3 Zrotation Yrotation Xrotation
					JOINT LeftToe
					{
						OFFSET 0.35452 -0.97402 1.38549
						CHANNELS 3 Zrotation Yrotation Xrotation
						End Site
						{
							OFFSET 0.00000 -0.00000 0.82816
						}
					}
				}
			}
		}
	}
	JOINT RHipJoint
	{
		OFFSET 0 0 0
		CHANNELS 3 Zrotation Yrotation Xrotation
		JOINT RightHip
		{
			OFFSET -1.56524 -1.58443 0.78595
			CHANNELS 3 Zrotation Yrotation Xrotation
			JOINT RightKnee
			{
				OFFSET -2.15558 -5.92241 0.00000
				CHANNELS 3 Zrotation Yrotation Xrotation
				JOINT RightAnkle
				{
					OFFSET -2.35077 -6.45870 0.00000
					CHANNELS 3 Zrotation Yrotation Xrotation
					JOINT RightToe
					{
						OFFSET -0.26910 -0.73935 1.33295
						CHANNELS 3 Zrotation Yrotation Xrotation
						End Site
						{
							OFFSET -0.00000 -0.00000 0.75962
						}
					}
				}
			}
		}
	}
	JOINT lowerback
	{
		OFFSET 0 0 0
		CHANNELS 3 Zrotation Yrotation Xrotation
		JOINT Chest
		{
			OFFSET -0.05489 1.97104 -0.02993
			CHANNELS 3 Zrotation Yrotation Xrotation
			JOINT Chest2
			{
				OFFSET -0.00702 1.94230 0.13626
				CHANNELS 3 Zrotation Yrotation Xrotation
				JOINT lowerneck
				{
					OFFSET 0 0 0
					CHANNELS 3 Zrotation Yrotation Xrotation
					JOINT Neck
					{
						OFFSET -0.07858 1.62869 -0.02510
						CHANNELS 3 Zrotation Yrotation Xrotation
						JOINT Head
						{
							OFFSET 0.13978 1.59213 -0.29859
							CHANNELS 3 Zrotation Yrotation Xrotation
							End Site
							{
								OFFSET 0.05353 1.64420 -0.10000
							}
						}
					}
				}
				JOINT LeftCollar
				{
					OFFSET 0 0 0
					CHANNELS 3 Zrotation Yrotation Xrotation
					JOINT LeftShoulder
					{
						OFFSET 3.48263 1.15278 0.52941
CHANNELS 3 Zrotation Xrotation Yrotation
						JOINT LeftElbow
						{
OFFSET 0 -4.592070 -0.000000
CHANNELS 3 Zrotation Xrotation Yrotation
							JOINT LeftWrist
							{
OFFSET 0 -2.981090 -0.000000
CHANNELS 3 Zrotation Xrotation Yrotation
								JOINT lhand
								{
									OFFSET 0 0 0
CHANNELS 3 Zrotation Xrotation Yrotation
									JOINT LFingers
									{
OFFSET 0 -0.480200 -0.000000
CHANNELS 3 Zrotation Xrotation Yrotation
										End Site
										{
OFFSET 0 -0.387150 -0.000000
										}
									}
								}
								JOINT LThumb
								{
OFFSET 0 0.000000 0.000000
CHANNELS 3 Zrotation Xrotation Yrotation
									End Site
									{
OFFSET 0 -0.393060 0.393060
									}
								}
							}
						}
					}
				}
				JOINT RightCollar
				{
					OFFSET 0 0 0
					CHANNELS 3 Zrotation Yrotation Xrotation
					JOINT RightShoulder
					{
						OFFSET -3.52496 1.12722 0.24548
CHANNELS 3 Zrotation Xrotation Yrotation
						JOINT RightElbow
						{
OFFSET 0 -4.765080 -0.000000
CHANNELS 3 Zrotation Xrotation Yrotation
							JOINT RightWrist
							{
OFFSET 0 -2.789020 -0.000000
CHANNELS 3 Zrotation Xrotation Yrotation
								JOINT rhand
								{
									OFFSET 0 0 0
CHANNELS 3 Zrotation Xrotation Yrotation
									JOINT RFingers
									{
OFFSET 0 -0.721300 -0.000000
CHANNELS 3 Zrotation Xrotation Yrotation
										End Site
										{
OFFSET 0 -0.581530 -0.000000
										}
									}
								}
								JOINT RThumb
								{
OFFSET 0 0.000000 0.000000
CHANNELS 3 Zrotation Xrotation Yrotation
									End Site
									{
OFFSET 0 -0.590410 0.590410
									}
								}
							}
						}
					}
				}
			}
		}
	}
}
MOTION
Frames: 5
Frame Time: 0.008333333333333333
24.849000 15.831800 0.165900 42.820600 -82.615900 -37.133700 0.000000 0.000000 0.000000 -28.979200 -7.221400 -14.805300 3.004900 10.703000 31.284500 1.585300 -10.863100 -22.696100 1.022500 -6.432900 -18.045700 0.000000 0.000000 0.000000 13.573700 5.130100 -16.370300 -3.227900 -11.055200 32.466300 -1.256500 -5.946000 -24.086000 -2.623900 -10.059800 29.170600 -10.224800 0.978800 -3.126100 0.258200 1.097800 -6.759600 5.989100 1.011900 -5.606800 -10.375900 -5.621700 0.390600 9.475400 -8.171100 7.863000 4.304000 -4.141500 3.077100 -0.000000 0.000000 0.000000 -12.416900 13.130900 -8.758800 30.178800 -41.046200 11.526900 16.838800 43.412800 -40.260300 0.000000 0.000000 0.000000 -7.125000 0.000000 0.000000 -27.899200 69.635300 16.898800 -0.000000 0.000000 0.000000 1.149000 10.500300 -11.311400 -11.762700 -19.447800 -2.022600 3.229000 16.858600 -52.027700 0.000000 0.000000 0.000000 7.125000 0.000000 -0.000000 20.253800 -19.456900 27.208800
24.851104 15.825604 0.183673 36.895427 -83.051330 -31.548204 0.000000 0.000000 0.000000 -28.084382 -7.624824 -14.708784 3.149499 10.933282 32.055034 1.653999 -10.775070 -23.160296 0.934565 -6.157907 -17.243302 0.000000 0.000000 0.000000 14.592863 5.415963 -15.612345 -3.117227 -10.882456 31.884497 -1.556614 -6.413067 -26.640581 -1.135628 -6.766954 19.027158 -9.209767 0.963729 -2.692765 0.458626 1.054576 -6.749873 5.625756 0.955601 -5.792927 -13.216927 -5.482651 -0.135500 12.717395 -8.261796 8.869897 5.756508 -4.171451 3.714052 0.000000 0.000000 0.000000 -12.520154 14.120227 -17.581186 29.358203 -40.336853 10.991861 32.288464 33.092297 -51.062354 0.000000 0.000000 0.000000 -7.125000 0.000000 0.000000 -48.117099 83.628639 43.184121 0.000000 0.000000 0.000000 1.261466 10.488997 -15.544822 -11.382820 -18.872590 -1.897869 2.806214 18.769140 -51.863691 0.000000 0.000000 0.000000 7.125000 0.000000 0.000000 20.066074 -19.334894 26.905679
24.847101 15.833659 0.205321 33.492371 -83.716949 -28.457977 0.000000 0.000000 0.000000 -27.375701 -7.346480 -14.851171 3.295052 11.157915 32.814377 1.743428 -10.826701 -23.769402 1.012182 -6.401056 -17.952731 0.000000 0.000000 0.000000 15.422211 5.639596 -14.779929 -2.956632 -10.624461 31.023666 -1.843012 -6.715771 -28.790455 -0.100034 -2.029584 5.588017 -8.237811 0.982157 -2.444416 0.620894 1.082421 -6.682393 5.246266 0.925195 -5.826705 -13.304038 -5.395700 -0.258351 12.852902 -8.170358 9.149364 5.816329 -4.122844 3.813673 0.000000 0.000000 0.000000 -12.521289 13.552801 -16.632478 28.194779 -39.294941 10.246878 29.162809 30.216450 -47.727838 0.000000 0.000000 0.000000 -7.125000 0.000000 0.000000 -31.380773 80.234103 25.922836 0.000000 0.000000 0.000000 1.485527 10.521391 -17.981322 -11.303101 -18.751254 -1.872133 3.011129 19.311106 -51.658950 0.000000 0.000000 0.000000 7.125000 0.000000 0.000000 20.130727 -19.125332 26.959999
24.848717 15.844771 0.226170 29.815233 -84.352237 -25.094351 0.000000 0.000000 0.000000 -26.775272 -6.959896 -15.022958 3.396588 11.310885 33.335798 1.806243 -10.526335 -24.164275 1.443452 -7.595213 -21.491184 0.000000 0.000000 0.000000 16.159698 5.778876 -14.088884 -2.840156 -10.431562 30.386012 -2.231232 -6.655385 -31.208209 -0.231326 3.095625 -8.545000 -7.197523 1.018233 -2.030734 0.701276 1.121829 -6.635346 4.738161 0.898663 -5.975666 -12.894692 -5.416066 -0.612948 12.352514 -8.157783 9.565370 5.578356 -4.107938 3.960375 0.000000 0.000000 0.000000 -12.269676 13.430255 -15.883229 27.188012 -38.357844 9.615591 36.456323 39.025511 -51.689005 0.000000 0.000000 0.000000 -7.125000 0.000000 0.000000 -54.611394 85.850321 51.155570 0.000000 0.000000 0.000000 1.963403 10.618415 -18.805143 -11.392619 -18.887563 -1.901080 2.706574 18.603826 -51.556425 0.000000 0.000000 0.000000 7.125000 0.000000 0.000000 19.996178 -19.052297 26.746222
24.848104 15.843499 0.231569 32.478375 -84.631102 -27.695446 0.000000 0.000000 0.000000 -26.881573 -6.940352 -15.158253 3.427372 11.356659 33.492457 1.842437 -10.336886 -24.391420 1.483872 -7.696331 -21.795388 0.000000 0.000000 0.000000 16.003970 5.868186 -14.121959 -2.812080 -10.384465 30.230988 -2.202902 -6.440441 -30.918576 -0.214416 2.980872 -8.225599 -7.175346 0.946065 -2.108427 0.648717 1.038816 -6.493614 4.675026 0.844701 -5.764339 -12.388859 -5.392504 -1.283556 11.856531 -8.040015 9.885565 5.324512 -4.025630 4.115350 0.000000 0.000000 0.000000 -11.983548 12.949824 -14.504225 25.667221 -36.878084 8.687263 37.072868 41.373631 -52.911318 0.000000 0.000000 0.000000 -7.125000 0.000000 0.000000 -73.451407 86.262419 69.829958 0.000000 0.000000 0.000000 2.487778 10.370166 -18.237183 -11.634672 -19.254433 -1.980200 2.919019 17.710244 -51.617435 0.000000 0.000000 0.000000 7.125000 0.000000 0.000000 20.089153 -19.093206 26.891901
